<svg viewBox="0 0 512 512" xmlns="http://www.w3.org/2000/svg" fill-rule="evenodd" clip-rule="evenodd" stroke-linejoin="round" stroke-miterlimit="2"><path d="M460.743 115.016c11.745-.026 23.5 0 35.245-.013.008 120.51.024 241.02-.008 361.531-135.992-.006-271.985-.006-407.98 0-4.794.111-9.746-.087-14.159-1.833-9.2-3.319-15.572-11.427-15.455-19.865-.024-29.194 0-58.382-.008-87.57 11.762-5.999 23.577-11.926 35.324-17.939 122.35-.078 244.7.093 367.04-.085.063-78.075.063-156.15 0-234.226" fill="#36687f" fill-rule="nonzero"/><path d="M259.053 112.035c16.228-2.062 33.059-1.023 48.53 4.515 11.691 4.217 22.735 11.48 29.42 22.164 4.24 6.685 6.341 14.627 6.247 22.531-.092 7.216.774 14.83-2.49 21.548-6.014 12.878-19.158 20.922-32.544 24.343 12.081 2.46 24.086 7.599 32.574 16.806 6.483 6.78 10.192 16.128 10.06 25.523-.15 9.115.914 18.486-2.031 27.296-3.92 12.574-13.347 22.805-24.53 29.451-15.76 9.48-34.551 12.776-52.749 12.285-15.267-.437-30.895-3.093-44.336-10.684-11.02-6.045-20.009-15.769-24.937-27.35-2.851-6.435-4.514-13.348-5.31-20.328 15.494 0 30.981 0 46.476.006.82 6.679 3.944 13.237 9.387 17.346 7.013 5.42 16.37 6.412 24.937 5.693 7.677-.662 15.722-3.927 19.947-10.698 3.99-6.076 4.03-13.613 3.865-20.619.22-6.467-2.084-13.222-7.075-17.517-6.093-5.32-14.315-7.248-22.173-7.943-7.223-.454-14.463-.109-21.696-.273-.1-11.051-.038-22.103-.03-33.145 9.332-.305 18.852.874 27.998-1.5 5.819-1.547 11.645-4.967 14.113-10.707 2.326-4.889 1.71-10.412 1.78-15.652-.023-4.834-1.35-9.965-4.928-13.416-4.88-4.89-12.191-6.186-18.846-6.022-6.567-.07-13.456 1.984-18.087 6.818-4.248 4.217-6.365 10.145-6.872 16.026-15.495.117-30.999.023-46.501.047.531-14.105 7.044-27.687 17.214-37.394 11.504-11.012 26.982-17.033 42.587-19.15" fill="#fff" fill-rule="nonzero"/><path d="M16.557 81.888c25.725-15.416 51.389-30.973 77.098-46.43.024 119.352-.078 238.701.048 358.052-11.747 7.145-23.563 14.191-35.324 21.32-14.137 8.42-28.115 17.112-42.338 25.375.133-116.945.016-233.897.055-350.842.172-2.476-.563-5.14.46-7.475" fill="#7fc5de" fill-rule="nonzero"/><path d="M259.053 112.035c-15.605 2.117-31.083 8.138-42.587 19.15-10.17 9.707-16.683 23.289-17.214 37.394 15.502-.024 31.006.07 46.5-.047.508-5.88 2.625-11.81 6.873-16.026 4.631-4.834 11.52-6.888 18.087-6.818 6.655-.164 13.965 1.132 18.846 6.022 3.577 3.451 4.905 8.582 4.928 13.416-.07 5.24.546 10.763-1.78 15.652-2.468 5.74-8.294 9.16-14.113 10.707-9.146 2.374-18.666 1.195-27.998 1.5-.008 11.042-.07 22.094.03 33.145 7.233.164 14.473-.18 21.696.273 7.858.695 16.08 2.624 22.173 7.943 4.99 4.295 7.295 11.05 7.075 17.517.164 7.006.126 14.543-3.865 20.619-4.225 6.77-12.27 10.036-19.947 10.698-8.567.72-17.924-.273-24.937-5.693-5.443-4.109-8.567-10.667-9.387-17.346-15.495-.006-30.982-.006-46.476-.006.796 6.98 2.459 13.893 5.31 20.327 4.928 11.582 13.918 21.306 24.937 27.351 13.44 7.591 29.069 10.247 44.336 10.684 18.198.491 36.988-2.805 52.748-12.285 11.184-6.646 20.61-16.877 24.53-29.451 2.946-8.81 1.883-18.181 2.032-27.296.132-9.395-3.577-18.744-10.06-25.523-8.488-9.207-20.493-14.347-32.574-16.806 13.386-3.42 26.53-11.465 32.544-24.343 3.264-6.717 2.398-14.332 2.49-21.548.094-7.904-2.006-15.846-6.247-22.531-6.685-10.684-17.729-17.947-29.42-22.164-15.471-5.538-32.302-6.577-48.53-4.515M93.656 35.46c113.68-.032 227.36 0 341.04-.017 6.999-.093 13.926 2.875 18.776 7.904 4.553 4.764 7.294 11.277 7.239 17.893.055 17.924-.008 35.855.032 53.779.062 92.797.062 185.593 0 278.39-122.342.21-244.692.007-367.041.101-.124-119.35-.023-238.7-.046-358.05" fill="#39a5cc" fill-rule="nonzero"/></svg>