<?xml version="1.0" encoding="UTF-8"?>
<svg id="CCP" xmlns="http://www.w3.org/2000/svg" version="1.1" viewBox="0 0 198.4 132.2">
  <!-- Generator: Adobe Illustrator 30.4.0, SVG Export Plug-In . SVG Version: 2.1.4 Build 226)  -->
  <defs>
    <style>
      .st0 {
        fill: gray;
      }
    </style>
  </defs>
  <path class="st0" d="M37.8,42.5c0,10.4-8.5,18.9-18.9,18.9S0,52.9,0,42.5s8.5-18.9,18.9-18.9,18.9,8.5,18.9,18.9Z"/>
  <path class="st0" d="M119.5,42.5c0,10.4-8.5,18.9-18.9,18.9s-18.9-8.5-18.9-18.9,8.5-18.9,18.9-18.9,18.9,8.5,18.9,18.9Z"/>
  <path class="st0" d="M37.8,89.7c0,10.4-8.5,18.9-18.9,18.9S0,100.1,0,89.7s8.5-18.9,18.9-18.9c10.4,0,18.9,8.5,18.9,18.9Z"/>
  <path class="st0" d="M78.7,66.1c0,10.4-8.5,18.9-18.9,18.9s-18.9-8.5-18.9-18.9,8.5-18.9,18.9-18.9c10.4,0,18.9,8.5,18.9,18.9Z"/>
  <path class="st0" d="M78.7,18.9c0,10.4-8.5,18.9-18.9,18.9s-18.9-8.5-18.9-18.9c0-10.4,8.4-18.9,18.9-18.9s18.9,8.5,18.9,18.9Z"/>
  <path class="st0" d="M78.7,113.3c0,10.4-8.5,18.9-18.9,18.9s-18.9-8.5-18.9-18.9,8.5-18.9,18.9-18.9c10.4,0,18.9,8.5,18.9,18.9Z"/>
  <g>
    <path d="M148.1,83.5h-4v7.4h4c2,0,3.7-1.7,3.7-3.7,0-2.1-1.7-3.7-3.7-3.7Z"/>
    <path d="M179.5,70.7h-78.9c-10.4,0-18.9,8.5-18.9,18.9s8.5,18.9,18.9,18.9h78.9c10.4,0,18.9-8.5,18.9-18.9s-8.5-18.9-18.9-18.9ZM102.1,95.7c1.9,0,3.1-.8,4.2-2.5l3.6,2c-1.5,2.8-4.1,4.4-8,4.4-5.7,0-9.5-3.9-9.5-10.2s4-10.2,9.6-10.2c4.1,0,6.6,1.8,7.9,4.4l-3.8,1.8c-.8-1.3-2-2.1-4-2.1-3.3,0-5.1,2.6-5.1,6.2s1.9,6.2,5.1,6.2ZM124.5,95.7c1.9,0,3.1-.8,4.2-2.5l3.6,2c-1.5,2.8-4.1,4.4-8,4.4-5.7,0-9.5-3.9-9.5-10.2s4-10.2,9.6-10.2c4.1,0,6.6,1.8,7.9,4.4l-3.8,1.8c-.8-1.3-2-2.1-4-2.1-3.2,0-5.1,2.6-5.1,6.2s1.9,6.2,5.1,6.2ZM149,94.7h-5v4.7h-4.3v-19.7h9.4c4.2,0,7.6,3.3,7.4,7.5,0,4.1-3.4,7.5-7.5,7.5Z"/>
  </g>
</svg>