<?xml version="1.0" encoding="UTF-8"?>
<svg id="Layer_1" xmlns="http://www.w3.org/2000/svg" version="1.1" xmlns:xlink="http://www.w3.org/1999/xlink" viewBox="0 0 576 576">
  <!-- Generator: Adobe Illustrator 30.4.0, SVG Export Plug-In . SVG Version: 2.1.4 Build 226)  -->
  <defs>
    <style>
      .st0 {
        fill: url(#linear-gradient2);
      }

      .st1 {
        fill: url(#linear-gradient1);
      }

      .st2 {
        fill: url(#linear-gradient);
      }
    </style>
    <linearGradient id="linear-gradient" x1="262" y1="1.26" x2="266" y2="1.26" gradientUnits="userSpaceOnUse">
      <stop offset="0" stop-color="#ff7705"/>
      <stop offset="1" stop-color="#faac18"/>
    </linearGradient>
    <linearGradient id="linear-gradient1" x1="288" y1="564.9" x2="288" y2="0" xlink:href="#linear-gradient"/>
    <linearGradient id="linear-gradient2" x1="274" y1=".15" x2="275" y2=".15" xlink:href="#linear-gradient"/>
  </defs>
  <path class="st2" d="M266,0l-.95,2.52c-1.5-.21-2.68-1.12-3.05-2.52h4Z"/>
  <path class="st1" d="M306,0c-3.47.12-7.67,2.17-11.49.76l-.52.97c8.54,1.44,15.06-1.87,24.34-.04,14.04,2.77,28.05,4.52,41.9,8.06l20.02,5.12,3.49,2.44c12.86,2.92,24.19,8.09,35.74,14.28,7.22,3.87,14.71,6.87,21.65,11.41l12.11,7.92c27.78,18.16,60.75,52.36,79.56,80.31,8.84,13.12,17.8,26.04,23.81,40.78,8.11,19.84,14.01,39.84,17.19,60.9.85,5.63,1.63,10.53,1.07,16.14-.1,1.01.53,1.91,1.11,1.95v9.99c-1.18.31-1.45,2.35-.82,4.24.46,2.27-2.18,1.7-1.03-.2.65-2.7-2.46-2.39-1.44.44-3.9-.85.82-9.39-5.42-7.94-.46-2.2-.78-3.97-1.81-5.7l-2.29,3.27c.5-2.97.81-5.35-.84-7.51-.54,2.76-1.05,3.51-2.27,5.08-.79,1.02-3.05,1.34-4.54-.43-1.18-1.4,1.18-8.11-1.29-7.93-3.42.24-1.65,2.61-3.74,2.83-1.16.12-2.17-.69-1.29-2.16.66-1.09.24-1.96.21-2.48-.06-.97-2.32-.88-2.29-.33.15,2.38-1.25,4.13-2.77,5.33-.76,4.86-1.17,10.29-.62,15.13l3.15,9.8c-.68-.02-1.28-.04-1.51.08-.55.27-.28,1.15-.18,1.77.41,2.63-2.18,4.23-4.1,4.76-.55,1.72-2.21-.17-.84-1.03.26-2.27-1.56-2.44-2.02-.02.44-5.62-1.98-10.33-4.54-15.65-2.66-5.52-3.93-11.74-10.43-14.72l.27,6.49c-2.23-5.61-2.27-11.59-6.03-17.58-.52,3.98,1.19,7.28,1.57,11.38-1.03.19-1.08-.82-1.18-1.09-.14-.36-1.25.04-1.45,1.37l-1.87-7.33c-1.05.73-2.34,1.35-2.98,1.3-.59-.05-1.32-1.14-1.45-2.08,4.44.56,1.98-6.51,4.99-14.56-1.66-1.74-3.98-3.06-4.43-5.09-1.7-7.64-3.73-15.45-10.44-15.84-3.31-9.66-8.38-18.16-14.67-25.11-2.01,1.97-3.16-1.06-4.28-1.53-.01,1.26,1.1,2.62-1.01,3.38.76-6.74-6.23-6.84-4.69-12.51l-4.81-8.12c-.22-1.91.69-3.93-1.59-4.89-.18,1.37-1.98,2.16-2.24,1.63-.66-1.33-.97-2.32-1.95-3.07-.65-.5-1.87.59-4.08,0,1.42-1.82,2.54-2.15,2.15-4.76-2.04,1.39-3.13,1.22-5.23.18.44,1.59,1.07,2.36.17,3.54-4.18-4.79-8.03-8.13-12.52-11.93-4.21-3.56-7.75-8.61-13.3-10.65-1.98-.73-4.54.24-6.32-2.97s-9.66-10.47-12.56-8.25c-.53-2.31-1.97-3.81-3.88-4.99l-19.7-12.11c-2.64,8.46-8.6-2.28-20.04-4.24.02-2.34.2-3.83-.37-5.58-29.93-12.51-61.86-16.18-93.95-12.45-16.87,1.96-32.81,4.1-49.05,9.54-14.08,4.72-27.7,10.69-40.88,17.83-4.36,2.37-8.41,5.66-12.54,8.41l-14.95,9.97c-6.16,4.11-10.95,9.05-15.12,14.98-.54.77-2.37.43-2.91.7-.58.28-.53,2-.72,2.97-5.56,2.72-9.13,8.7-13.15,13.44-13.61,16.09-22.86,34.04-30.68,53.5-5.54,13.79-8.65,27.82-10.39,42.66l-2.34,19.93c-.94,8.03-.16,16.6-1.48,24.19,1.85,1.55.57,4.01.7,5.92,1.17,16.85,4.01,33.68,10.92,48.77l5.78,12.61c1.17,2.55,2.86,3.71,1.09,7.38,4.59-4.6.96,1.97,6.11,9.12l-.47,3.2c-.13.92,1.95,1.83,2.78,2.62,4.19,3.98,6.45,8.89,9.36,13.69l4.11,6.8,17.72,21.3c7.88,9.47,17.1,16.92,27.5,23.49,1.44,4.06,3.89,6.47,8.84,8.32l1.07-2.77c0,2.88.76,5.03,3.53,6.2l12.34,5.22c4.79,2.03,6.92,2.14,14.22,7.25,1.99,1.39,6.34.03,7.93,2.2-2.28-.65-3.16.69-2.38,1.96,3.77-.52,5.2,1.83,7.44,2.6,1.78.61,4.33,1.36,6.18,2.49,3.5-1.61,7.46-2.68,10.4.14-2.09.15-3.15-.24-4.53,1.07l10.46,2.13-3.63-2.9,24.28,3.76c4.74.73,8.94.63,13.52,1.49l21.94-.53c-1.99,2.06-4.91.71-7.81,2.66l9.54.78-2.75,1.44c3.29,2.09,4.98.14,7.12-.04,5.16-.42,10.17,1,15.34-.45l1.64-1.64,1.75,1.58,18.61-3.16c2.9-.49,4.22-1.7,7.39-1.47l6.62-1.66c1.8-.45,3.34-2.31,4.7-3.4,5.54,1.57,9.5-1.16,13.77-3.84,1.5-.95,4.85-.28,5.74-3.49.78,1.14,1.2,1.43,1.61,1.52.47.09,1.18-.74,1.55-1.54.45-.51,2.19-.33,3-.8l12-6.94c4.55-2.63,9.96-3.62,13.3-8.29,1.89-1.74,6.31-1.97,9.24-2.91.14-3.92,2.4-3.9,4.65-5.8l5.88-4.97c1.65-1.39,3.43-2.26,4.78-4.56l-4.85-3.48c1.88-.42,2.47-.89,3.08-1.65.35-.43,1.05.27,1.11.79.07.58-1.18,2.23-.28,2.72,3.02,1.66,5.54-2.99,4.97-5.84l2.97.04c.6,0,1.73-1.33,1.33-1.91s-1.15-.83-1.11-1.11c.06-.44,1.24-1.01,2.03-1.44l-.17-2.5c-.14-2.07,5.39-2.69,7-5.83.84-1.65.48-3.41.06-5.29,3.97,1.11,6.46-1.86,8.53-4.79,1.42.63.32,2.04.29,2.48.91.91,2.61-.56,2.51-1.47s-.96-2.2-3.31-2.7l5.03-10.38-4.4-2.73c1.42-1.6,2.42-1.64,3.29-2.2s.74-2.39-.37-3.99c9.57-12.18,14.93-26.63,19.5-41.11,1.11,2.24.39,3.65,1.47,5.03.25-4.42,2.91-5.75,4.25-8.25,1.79-3.6.91-9.3,2.02-13.6-1.47-1.97-3.82-4.24-3.42-7.14l.82-5.97c3.07,3.8,3.9,5.27,3.55,8.89,4.67.23,7.57,9.14,8.75,5.98,1.05-2.81.16-4.81-2.2-6.75,1.89-.29,2.6.15,3.47-.09,1.67-.47-.02-2.89.3-3.56,1.91-2.45,2.58-5.72,1.51-9.11-1.29-4.11,1.66-9.98-.73-14-1.07-1.8-3.48-1.77-3.87-3.19-.64-2.36-.94-3.84.44-5.8.55,2.86,1.81,4.72,4.45,5.5.32-4.5-.65-7.64-1.74-11.96,2.2.97,3.92,2.58,4.96,5.74,1.16-1.24,2.59-1.91,3.91-1.6,1.49.36,2.14,1.56,3.28,3.62.02-1.59,4.76-2.62,5.09-.95,2.86,14.59.82,29.22-1.8,43.43l-1.61,8.74c-.14.78-1.18,2.13-1.72,2.6-.61.53-2,.25-3.89-.3l-3.64,18.64c1.33.58,2.43-.64,2.56-2.33,1.27,3.31-4.31,5.63.1,10.93-1.77,5.04-3.97,10.45-2.67,14.73,1.39,4.58-1.87,9.3-2.49,14.34,1.55-.76,3.46-1.97,4.03-2.91l11.18-18.51c3.22-5.32,4.65-11.28,9.76-16.04-.35,5.21-1.8,9.46-.61,14.3.34,1.36,2.96,2.65.74,5.28l3.29-1.09c-1.8,3.18-.06,5.54.49,8.41,1.14,5.99-1.79,11.58-3.8,16.73l-2.34,6c2.06,4.38,2.13,8.5-.5,12.26,2.95.06,3.11,1.89,3.25,3.26.22,2.08-.17,3.87-1.49,5.02-1.8-2.53-4.05-.56-5.96-1.44-.36.81.04,2.02.5,3.58-2.87,1.71-3.25,4.73-3.54,7.48-6.72,3.41.83,7.76-3.35,11.95-.65.65-.59,1.6.5,2.25l-6.1,9.91c-3.63.85-1.45-2.62,2.02-8.89-1.45,0-2.22-.36-2.54-1.04-.62-1.3-.53-2.88.91-3.85-.52-.79-1.17-.97-1.33-2.73,1.71,1.02,5.36-2.28,4.28-3.59-1.99-2.41-5.35-.11-6.62,1.62l-3.07,4.17c-4.26,1.38-6.72,4.9-7.22,9.16l-9.52,10.17c.08,1.55.27,3.15-.82,4.45s-2.85,1.03-3.9,1.75l-5.85,6.87c-.67-.09-1.87.18-2.25.4-1.13.64,0,.62,1.47,1.91-1.23-.04-2.78.29-3.35.93-.44.49-.25,1.37-.12,2.92-1.64-.53-3.05-.97-3.87-.57-3.18,1.51.67,5.73-1.68,7.34-.7.48-2.15-.08-3.76-1.82-1.61,4.63-5.78,5.7-9.26,6.2-1.31,3.51-2.36,5.41-6.42,6.08-2.87,1.08-8.17,4.63-10.2,7.06-3.73,4.47-8.22,3.98-12.41,6.28-5.24,2.88-8.78,10.11-15.89,8.59.64,2.71-1.48,3.23-2.65,3.32-3.31.24-4.4,1.93-6.78,3.69-1.25.93-4.99-1.09-7.08,1.7.58.53,1.96,1.07,3.62,1.92l-7.72,6.01c-1.43,1.11-4.59.3-5.47-1.29,1.98-.3,4.07-1.01,3.21-3.39-3.78,2.03-7.45,2.48-11.5,3.33-.68.14.11,2.15-.39,2.58-.72.62-3.15.5-3.06-.25,3.28-.49.37-3.27-.71-.99-2.54-1.05-4.23-1.23-6.16.21l3.83.69c-1.55,1.51-3.26-.06-5.17-.15-.74-.03.08,2.3-.47,2.47-3.21,1.01-3.87-2.79-5.59-1.17.86.92,1.03,2.26,1.08,2.9.05.67-2.32.98-3.09.72-.67-.23-.45-1.02-.61-2.34l-5.92,2.29c-3.76,1.46-15.89-1.29-10.2,1.51.95-1.02,1.9-.06,1.05.9-6.44-.74-14.92,1.37-14.78.83-.11.45,0,1.39-.13,1.5-1.82-1.14-3.68-.89-3.35-1.24.26-.28,1.39-.7,2.54-1.04-.46-.91-2.52-.91-3.71-.55-.88.27-1.61.88-1.26,2.73-6.18,1.16-10.81-2.38-14.93-.09l5.57.66c-2.05,2.45-6.04-.25-7.99.32-2.61.76-3.92,1.41-6.38,1.31l-10.25-.44c-4.74-.2-8.25.17-12.99-.69-3.04-.55-7.51,1.87-10.27-2.53l-5.03.33c-.19-.54-.32-1.15-.33-1.3l8.46-.8c-3.23-1.59-7.47-1.63-11.21-.01-.86.37-.03,3,.78,3.13-3.79.41-6.24-1.97-9.42-2.81-2.17-.57-5.62.29-7.78-1.61-.33-.29-1.81-.15-2.23-.08-.34.05-.97-.59-.21-1.13.48-.34,1.42-.68,1.63-2.08-2.91,1.25-4.96,1.54-7.13-1.5-.81.72-.87,1.46-.71,2.48-2.89.15-5.67.61-8.37-.43,2.63-.44,4.58-.31,5.6-1.82-2.35-2.14-3.63-3.47-6.97-2.64,1.05,1.28,1.98,1.16,3.84,1.31-1.23,1.16-3.14,1.24-4.59.07.24-1.37.14-2.16-.55-2.44-3.15-1.25-3.35,2.74-7.96,4.26.6-2.65.2-4.35-2.17-5.72,1.18-.24,2.42.12,3.55-1.57-4.26.38-6.28-.5-9.19-2.21-.5,1.47-.93,2.68-1.36,3.04-.53.44-1.84-.22-3.43-1.06-.47.44.31-.97,1.99-1.08-1.64-1.16-2.93-1.77-5.79-1.36.51,1.21,1.23,2.28.76,3.87-.68-2.82-2.56-4.03-5.46-5.58,1.08-.37,2.29,1.26,3.9-.84l-7.62-2.83c.46,1.95,1.24,3.65,3.01,5.09-3.92-.24-6.7-.8-9.94-2.62,1.51-1.7,3.14-.42,4.73-.56-.88-2.32-6.2-3.25-7.74-1.81-1.06,1.66-1.16,1.69-3.04,1.19-.89-.24-1.86-1.18-2.53-2-2.77-.36-4.7-2.89-6.01-4.83-6.1-1.47-11.87-3.87-14.25-9.59-.8,1.39-.85,2.59-1.23,2.98-.5.51-2.92-.23-3.2-.9-1.88-4.43-5.43-6.55-9.86-8.34l-7.56-5.08c-.35-.24-.9-1.3-1.2-1.28-.32.02-.88.77-1.1.98-1.73,1.61,6.39,3.97,6.91,6.33l.44,2c.11.52-1.4.77-1.78-.24-1.65-4.4-5.72-5.71-10.01-4.69l-.55-2.57c-.11-.52-1.63-.43-2.12-.55l-3.46-5.01c-6.95-3.48-13.88-6.53-18.47-12.68l-15.6-14.2c-7.42-8.56-15.12-16.28-21.35-25.78-1.8-2.75-5.2-4.25-7.36-5.55-1.32-3.63-3.15-7.4-6.55-9.53-.13-6.13-5.83-4.08-3.71-10.4-2.04-2.41-5.14-5.24-6.63-8.24-7.2-14.51-12.57-28.8-18.01-44.08-8.44-23.68-13.49-47.63-15.27-72.88-.11-1.53.78-3.35-.86-3.98l.4-31.96c.79-15.48,2.44-30.63,6.6-46.14,8.8-32.79,18.52-62.79,38.41-90.12l.71,4.33c7.96-12.59,16.26-24.48,26.75-35.37l14.18-14.72,24.24-21.66,10.55-7.38c14.83-11.92,31.15-19.84,47.87-28.22,29.83-14.96,63.5-22,95.33-26.26,3.64-.49,7.7-.82,11.91-.45,4.95.44,8.99-1.64,13.04-2.07h16ZM566.08,249.37c-.05-2.16-1.12-4.7,1.56-5.71-1.12,3.78-1.04,6.51.94,9.4,1.82-6.92.39-12.54-1.6-18.83-2.21-6.98-3.7-13.87-6.63-20.34-1.2,4.98,1.08,9.43,1.28,14.07.17,3.88.46,6.57,1.72,10.18.16,2.5-2.63,5.61-1.24,9.06,1.11-.38,1.23-1.59,1.38-3.4.92,1.79.52,4.06,2.59,5.56ZM505.02,352.29c1.71.3,2,1.64,2.08,2.49,2.9-.38,1.58-3.34,2.07-4.47,1.48-3.43,2.66-5.39,1.53-9.51,1.71.67,1.51,1.73,1.64,3.52,1.39-1.47.7-4.16-.66-6.09-.75-1.06-2.38-1.25-4.85-.82-2.55,3.62-4.26,8.22-4.44,13.13.51.87.6,1.73-.17,1.94-.56.15-1.78.32-1.55.04.3-.37,1.19-2.04-.14-3.03-1.67,2.31-2.52,7.24.7,9.06.78.44,3.06-.41,3.43,1.3.82-3.61.84-5.2.36-7.57ZM488.8,432.8c3.87-.75,4.08-3.43,6.43-4.8,14.72-8.57,6.31-12.52,12.58-17.71.55-.46-.82-2.19-1.7-2.19-2.48,0-5.51,1.26-5.73,2.13-.14.57.05,1.18.23,2.09-3.98,1.13-6.27,9.85-7.77,12.74l-4.04,7.74ZM504.5,435l-.5.5.5.5.5-.5-.5-.5Z"/>
  <path class="st0" d="M274,0h1c-.27.39-.73.39-1,0Z"/>
</svg>