<?xml version="1.0" encoding="UTF-8"?>
<svg xmlns="http://www.w3.org/2000/svg" version="1.1" xmlns:cc="http://creativecommons.org/ns#" xmlns:dc="http://purl.org/dc/elements/1.1/" xmlns:inkscape="http://www.inkscape.org/namespaces/inkscape" xmlns:rdf="http://www.w3.org/1999/02/22-rdf-syntax-ns#" xmlns:sodipodi="http://sodipodi.sourceforge.net/DTD/sodipodi-0.dtd" xmlns:svg="http://www.w3.org/2000/svg" viewBox="0 0 194.69 207.18">
  <!-- Generator: Adobe Illustrator 30.4.0, SVG Export Plug-In . SVG Version: 2.1.4 Build 226)  -->
  <defs>
    <style>
      .st0 {
        fill: #d40000;
        fill-rule: evenodd;
      }
    </style>
  </defs>
  <g id="svg2" inkscape:export-xdpi="561.73712" inkscape:export-ydpi="561.73712">
    <sodipodi:namedview id="base" bordercolor="#666666" borderopacity="1.0" gridtolerance="1" guidetolerance="1" inkscape:current-layer="svg2" inkscape:cx="365.31402" inkscape:cy="261.45663" inkscape:pageopacity="0" inkscape:pageshadow="2" inkscape:showpageshadow="false" inkscape:window-height="837" inkscape:window-maximized="1" inkscape:window-width="1600" inkscape:window-x="-8" inkscape:window-y="-8" inkscape:zoom="0.70710678" objecttolerance="1" pagecolor="#ffffff" showgrid="false" showguides="false" units="px">
      <inkscape:grid id="grid857" type="xygrid"/>
    </sodipodi:namedview>
    <path id="path822-4" class="st0" d="M104.94,83.46c4.05,3.47,11.71,5.21,13.62,17.71,1.91,12.5-8.78,32.3-24.66,38.66-11.03,4.51-17.23,3.36-27.25,2.66-4.28-2.43-14.86-4.17-19.25-17.02-2.36-6.95-4.28-15.4-1.46-22.8l1.46-4.51c1.01-5.56.56,1.62,2.14-2.89.23-.69-.45-.35.9-2.32l4.39-4.98c2.36-2.43,3.38-2.08,4.17-5.21-2.82-.81-1.01-.81-3.83-1.62l3.49-4.17c.9-1.27.68-.35,1.13-2.08,3.38.81,2.48,1.5,5.29,2.32-3.27-6.37-1.13-6.02,4.05-11.58,3.83-4.05,6.19-5.67,11.37-8.1,6.76-3.13,14.75-3.94,23.65-3.13,3.49.35,4.84,1.39,8.56,1.5l.9.69c1.24.81.23.23,1.46.81,5.29,2.55,14.53,6.6,19.93,7.18,14.64,1.27,7.99-.46,21.39,0,3.72.12,3.6.69,6.87.81-2.82-3.82-6.42-3.36-9.23-5.56,7.32-.81,6.87-.12,7.99-1.85.68-1.39,1.8-2.32,4.28-2.2l2.14.35h.45c.11,0,.45-.12.56-.12s.34-.12.45-.12c4.17-1.16,6.53-4.86,11.26-5.9,4.28-1.04,8.67-1.04,13.51-8.22-6.64.58-18.13,12.85-50.67,1.74-2.48-.93-4.62-1.97-6.87-2.55,1.01-1.97,1.46-3.59-.11-6.02-1.58-2.55-6.08-4.28-9.01-4.98-1.91-.93-4.95-1.97-7.54-2.55-2.36-.58-5.86-.81-8.56-1.39,1.35-.93,6.08-1.39,7.77-1.5,2.7-.35,6.19-.12,9.01-.12-1.58-2.2-3.6-1.74-7.54-1.5l-6.87.12c-5.29,1.39-6.53,2.2-13.85,2.2.68-1.97,1.91-2.2-.68-2.43-16.89-1.74-32.09,8.33-36.93,9.49,1.58-2.08,22.41-13.77,26.12-15.74l22.86-13.54c1.69-1.27,1.8-.58,2.36-3.01l-8.78,2.78c-6.98,2.89-23.98,8.1-30.97,9.14-7.66,1.16.34-1.27-10.81,2.2l-4.17,1.27c-4.28,1.74-2.36,2.08-4.84,2.89-3.49,1.16,0-1.27-3.15,0-2.48,1.04-.9,1.39-3.94,2.2,1.58-2.43,3.6-3.7,5.97-5.67,3.27-2.78,5.52-3.47,6.31-6.14-3.83.12-5.29,1.97-7.88,3.82-2.59,1.74-4.73,3.13-7.32,4.98-2.82,1.97-3.72,3.24-6.98,4.75-3.38,1.5-4.84,2.66-7.77,4.63.79-3.01,3.04-4.98,4.62-7.87-3.49.93-.79,1.62-6.19,5.32-2.82,1.97-2.03,1.97-3.04,3.94-2.14,3.82-4.62,3.47-9.23,9.49-2.93,3.82-7.54,5.21-9.12,7.87l-.68,2.2c0,.12,0,.35-.11.46-1.46,3.01-5.74,3.82-6.08,8.45,3.38.12,5.4.81,9.91.81,26.35-.12,27.7-13.54,56.08-11.11,3.94.35,7.09.93,10.7.93v1.5c-9.57.23-28.94,10.53-35.13,15.16-9.46,7.29-17.68,17.25-21.62,29.87-6.98,23.15,4.39,40.75,22.41,50.12,4.28,2.2,13.17,6.37,18.69,6.48,3.38,1.39,33.56.93,34.34.69,2.48-.81.56.12-.11-.58-1.69-1.62-1.58,1.04-1.01-.93,1.91-.35,6.42-.81,7.77-1.85,0-.12.23-.23.23-.35l.45-.93c5.63,0,12.05-1.16,15.76-3.47,3.83-2.43,4.28-1.39,9.23-3.13,5.4-1.74,19.25-6.48,21.73-9.84-4.84,1.16-13.29,5.44-22.18,5.44.11-.12.45-.35.45-.23.11.12.45-.23.56-.35,5.07-2.78,2.25-1.62,4.84-3.59.68-.58,1.8-1.04,2.59-1.39-.11-2.43-.34-2.78-.79-4.75,2.7-1.85,2.36-1.04,3.04-3.82l.23-1.39c.79-4.28,2.14-5.32,6.19-10.3l11.26-13.31c-.34-3.47,24.43-12.73,25.22-22.34-2.03,1.62-1.58,2.89-5.97,6.37-7.09,5.56-10.02,5.56-19.25,5.44-5.4,0-7.32.81-12.27.81,2.25-3.36,1.91.12,3.04-3.94-3.83.93-4.95,1.62-9.91,1.62-11.6.12-12.84-7.76-27.14-8.68-13.17-.23-28.71-3.01-43.01,6.71-21.96,14.93-13.62,35.19,1.91,35.88,4.28.12,7.54-1.27,9.68-3.47,7.99-8.57-1.69-16.21-2.59-17.36-8.56-12.5,7.21-18.17,23.87-15.05,2.48.35,3.6.93,5.74,1.04h0Z" inkscape:connector-curvature="0" inkscape:export-filename="G:\Users\suitedoalex\sites\garena-logo-4.png" inkscape:export-xdpi="67.398483" inkscape:export-ydpi="67.398483"/>
    <path id="path824-5" class="st0" d="M21.18,159.87c-5.59.07-11.21,2.08-15.08,6.17-11.13,11.73-7.47,41.09,14.65,41.09,4.41,0,7.02-.52,10.31-2.39,2.54-1.42,3.21-1.94,4.63-4.04l1.35-1.72.6,7.1h3.44v-23.39h-19.35v4.11h15.32c-.45,17.86-19.73,20.1-27.35,11.06-8.14-9.71-6.05-30.11,7.7-33.25,9.64-2.17,17.93,4.04,18.08,10.46h5.08c-.84-10.04-10.06-15.32-19.37-15.21h0ZM148.12,172.21c-1.85-.03-3.7.25-5.36.78-3.66,1.12-3.59,2.47-6.05,4.11v-4.04h-4.56v33.02h4.56v-19.28c0-13.15,17.78-14.42,17.78-2.54v21.82h4.63v-22.34c0-8.41-5.46-11.43-11-11.54h0ZM60.63,172.21c-6.2.07-12.92,2.94-12.92,11.53h4.56c0-9.79,14.79-10.09,16.44-2.69,2.54,11.06-22.56.38-22.56,16.44,0,6.72,5.38,9.64,12.25,9.64,5.6,0,8.07-2.62,10.68-5.6,1.12,5.01,1.35,4.56,7.62,4.56v-4.04c-2.91.67-3.59-.37-3.59-4.04-.22-10.31,1.87-19.58-3.44-23.54-1.79-1.34-5.33-2.31-9.05-2.27h0ZM179.31,172.23c-6.27-.11-13.61,2.53-13.61,11.52h4.63c0-10.91,16.21-8.82,16.21-2.54v2.54c0,6.35-22.34-1.05-22.34,13.75,0,11.21,15.02,11.73,20.7,6.42,1.42-1.27.75-1.35,2.17-2.39.45,5.3,3.21,4.56,7.62,4.56v-4.04c-1.94.45-1.05.45-2.99,0-2.76-11.66,3.44-23.91-5.3-28.32-1.61-.84-4.24-1.45-7.09-1.5ZM112.29,172.31c-8.36.06-14.21,6.75-14.21,15.99v4.11c0,19.73,28.99,18.75,28.99,2.54-7.62,0-2.32.37-6.95,5.23-5.08,5.23-14.57,3.66-17.04-4.63-.52-1.64-.22-3.14-.97-4.71h25.48c0-9.64-3.29-17.48-13.6-18.46-.58-.06-1.15-.08-1.71-.08h0ZM97.56,172.54c-4.71,0-7.77,1.12-10.61,4.18l-2.09,2.91v-6.57h-4.11v33.02h4.56v-18.31c0-6.28,5.01-10.68,12.25-10.68v-4.56ZM112.8,176.12c6.13,0,9.71,5.45,10.16,11.21h-20.32c0-5.75,4.48-11.21,10.16-11.21h0ZM69.09,188.82c0,4.56-.22,7.62-2.02,10.24-4.33,6.2-16.36,4.93-16.36-1.57,0-8.14,12.85-5.75,18.38-8.67ZM186.54,189.35c0,5.08.67,6.65-1.79,9.86-3.74,5.08-15.99,6.2-15.99-2.77,0-3.14,4.33-4.78,7.32-5.38l10.46-1.72Z" inkscape:connector-curvature="0" inkscape:export-filename="G:\Users\suitedoalex\sites\garena-logo-4.png" inkscape:export-xdpi="67.398483" inkscape:export-ydpi="67.398483"/>
  </g>
</svg>