<?xml version="1.0" encoding="UTF-8"?>
<svg id="Layer_1" xmlns="http://www.w3.org/2000/svg" version="1.1" viewBox="0 0 500 500">
  <!-- Generator: Adobe Illustrator 30.4.0, SVG Export Plug-In . SVG Version: 2.1.4 Build 226)  -->
  <defs>
    <style>
      .st0 {
        fill: #fd4804;
      }

      .st1 {
        fill: #fd4703;
      }
    </style>
  </defs>
  <path class="st1" d="M0,146.47V0s499.99.13,499.99.13v499.87s-206.39-.03-206.39-.03c31.62-17.74,59.07-41.49,79.97-71.37,42.91-61.36,51.52-138.84,15.07-205.27-42.75-77.91-131.51-125.95-219.53-128.78C107.79,92.58,49.72,113.25,0,146.47Z"/>
  <path class="st0" d="M91.01,499.98H0v-82.43c18.71,32.9,46.24,59.97,79.92,77.37l11.08,5.06Z"/>
  <path class="st0" d="M0,285.65v-73.05c44.68-48.63,112.86-74.01,179.3-68.93,20.13,1.54,38.77,5.69,57.03,14.17,39.48,18.32,70.36,50.67,86.55,91.26,20.37,51.08,18.18,113.76-10.47,161.28-39.3,65.19-135.59,75.94-199.69,39.79-31.91-17.99-54.13-50.12-60.32-86.25-3.29-19.18,1.16-38.61,10.41-55.08,21.06-37.46,74.16-58.11,114.86-54.85,28.67,2.3,50.69,31.8,46.11,59.77-3.27,19.99-23.89,42.42-45.72,45.21-9.3,1.19-17.43-2.92-22.83-10.27-10.55-14.34-4.66-29.36-14.8-33.98-10.11-4.6-23.85,11.15-28.37,23.37-10.05,27.2-6.96,49.57,16.77,67.12,17.47,12.92,38.45,17.66,60.13,17.22,28.16-.57,52.84-12.09,70.89-33.85,18.31-22.07,29.17-49.51,31.47-78.46,3.35-42.18-19.97-81.21-56.9-100.61-45.66-23.99-104.03-28.78-150.3-3.32C49.4,225.31,20.57,252.69,0,285.65Z"/>
</svg>