<?xml version="1.0" encoding="UTF-8"?>
<svg id="Layer_1" xmlns="http://www.w3.org/2000/svg" version="1.1" xmlns:xlink="http://www.w3.org/1999/xlink" viewBox="0 0 548.02 526.75">
  <!-- Generator: Adobe Illustrator 30.4.0, SVG Export Plug-In . SVG Version: 2.1.4 Build 226)  -->
  <defs>
    <style>
      .st0 {
        fill: #d2affe;
      }

      .st1 {
        fill: #3065fe;
      }

      .st2 {
        fill: #445ffe;
      }

      .st3 {
        fill: #c624fe;
      }

      .st4 {
        fill: #874efe;
      }

      .st5 {
        fill: #c5b1fe;
      }

      .st6 {
        fill: #5755fe;
      }

      .st7 {
        fill: #4361fe;
      }

      .st8 {
        fill: #5b54fe;
      }

      .st9 {
        fill: #c9b0fe;
      }

      .st10 {
        fill: #6d4bfe;
      }

      .st11 {
        fill: #515dfe;
      }

      .st12 {
        fill: #853efe;
      }

      .st13 {
        fill: #3766fe;
      }

      .st14 {
        fill: #a933fe;
      }

      .st15 {
        fill: #8052fe;
      }

      .st16 {
        fill: #256dfe;
      }

      .st17 {
        fill: #9c39fe;
      }

      .st18 {
        fill: #2d6bfe;
      }

      .st19 {
        fill: #b2b5fe;
      }

      .st20 {
        fill: url(#linear-gradient);
      }

      .st21 {
        fill: #8abbfe;
      }
    </style>
    <linearGradient id="linear-gradient" x1="-663" y1="607.49" x2="-663.45" y2="955.15" gradientTransform="translate(934 -565)" gradientUnits="userSpaceOnUse">
      <stop offset="0" stop-color="#8fbefe"/>
      <stop offset="1" stop-color="#cfaffe"/>
    </linearGradient>
  </defs>
  <path class="st3" d="M548.02,315.65c-.84,17.67-.78,35.38,0,53.07-70.19,8.18-112.96,39.75-174.38,96.12-34.85.53-74.98,24.99-78.46,61.91h-10.54c-18.05-14.98-35.61-14.98-52.68,0h-10.54c-14.35-8.73-29.58-16.15-45.69-22.24-37.58-58.8-92.93-95.15-161.6-103.89L.23,364.42c.98-14.38.69-27.31-.23-41.41,16.51-28.21,46.68-20.67,40.66,13.32,52.88,4.25,103.91,29.11,153.08,74.58,29.35-8.31,49.28.97,71.21,20.44,24.89-11.68,48.11-16.61,69.64-14.78,37.27-18.23,55.91-27.35,55.91-27.35,38.25-45.41,77.4-65.94,117.45-61.6-19.87-38.59,14.39-43.72,40.07-11.97Z"/>
  <path class="st16" d="M347.85,0c19.02,13.83,47.3,10.05,63.01,31.59-6.03,13.01-20.68,12.87-43.93-.41,1.84,30.84-32.48,28.2-37.78-1.44-43.37-7.13-87.56-5.45-130.96.49-3.97,29.05-25.36,27.59-38.17,3.43-18.29,4.02-51.81,9.9-43.66-12.69,18.48-3.08,39.03-6.69,52.39-20.96h179.1Z"/>
  <path class="st14" d="M53.7,285.9c40.53.12,27.21,63.5-13.03,50.42-7.11-8.31-30.36-10.32-40.66-13.32l.2-17.49c23.1-7.76,21.33-31.08,21.28-51.83,12.52-18.47,23.26-7.73,32.22,32.21Z"/>
  <path class="st17" d="M526.94,252.87c-3.39,21.09-.67,45.12,21.08,53.55v9.22c-12.9-3.1-40.08-6.34-40.07,11.97-42.77,24.36-55.78-53.15-13.02-62.3,1.7-8.43,5.28-12.59,10.75-12.5,3.46-27.98,13.24-26.72,21.26.05Z"/>
  <path class="st20" d="M198.2,30.23c43.41-5.97,87.54-7.6,130.96-.49l37.78,1.44c38.28,4.2,62.63,17.74,73.04,40.61,17.82-5.46,32.14,7.92,21.19,24.27,21.51,10.22,28.84,21.36,21.99,33.42,20.65-.59,22.25,7.84,3.99,17.97,21.65-6.02,28.04,24.04,7.42,31.71,9.33,25.08,8.95,61.13.36,86.17.09,21.43-15.44,47.92,13.02,62.3-3.02,19.65-35.34,16.43-46.38,27.26-119.32,117.02-139.21,73.85-151.56,78.88-6.89,2.8-14.15,17.65-19.25,30.68-2.24-4.55-7.91-13.51-12.86-15.12-4.22-1.37-12.8,4.72-19.39,13.95-8.1-11.02-13.04-20.86-23.69-28.9-10.58-8-27.21-7.86-41.22,1.92l-99.14-67.49c-15.96-10.86-43.8-8.86-53.79-32.48,17.38-17.56,17.55-29.94,13.03-50.42-24.8-43.82-28.4-88.51-1.79-130.31-23.1-4.42-9.44-47.14,11.81-48.74-12.32-23.71,7.3-40.05,32.04-42.32-7.79-9.95,2.46-17.34,30.77-22.15,6.88-5.45,18.04-8.36,33.5-8.72,10.33-4.32,26.81-3.96,38.17-3.43ZM221.63,336.33c2.52,17.03,13.61,29.21,19.78,44.04,6.33,15.21,43.99,26.73,51.57,11.43,6.53-13.19.45-36.55,6.49-44.52,8.69-11.45,30.17-10.29,46.31-11.32,22.61-1.44,24.84-20.33,24.53-35.04-.38-18.67-5.95-28.11-21.6-39.13-16.3-11.49-38.92-16.75-54.1,1.22l-27.91,33.05c-14.31-20.71-31.9-43.17-52.11-42.02-31.27,1.77-47.55,22.96-47.97,46.31-.52,28.35,27.54,40.18,55.01,35.98Z"/>
  <path class="st1" d="M410.86,31.59c23.19,1.39,39.43,12.42,52.79,30.06,7.9,25.75-4.32,25-23.67,10.14-21.39-8.28-53.55-23.76-73.04-40.61,14.68.56,29.51-.46,43.93.41Z"/>
  <path class="st10" d="M516.77,200.19c-3.11,9.19-6.7,9.03-10.76-.05-4.73-2.64-8.55-9.63-11.45-20.99-.04-10.68-5.16-21.52-7.42-31.71,4.47-19.04,14.92-23.48,28.31-8.95,5.01,20.64,12.93,42.75,1.32,61.7Z"/>
  <path class="st2" d="M495.35,105.11c-7.52,15.19-18.92,12.17-34.19-9.06-4.3-6.88-15.11-18.84-21.19-24.27l23.67-10.14c10.07,13.3,26.9,26.61,31.7,43.46Z"/>
  <path class="st12" d="M526.94,252.87l-21.26-.05c-9.22-10-8.13-40.59.34-52.69l10.76.05c11.85,14.62,13.12,34.3,10.16,52.68Z"/>
  <path class="st6" d="M505.7,115.99c5.29,5.55,7.85,14.67,9.75,22.5-8.36,4.67-18.15,7.79-28.31,8.95l-3.99-17.97c-15.97-19.79,3-24.58,22.54-13.48Z"/>
  <path class="st11" d="M495.35,105.11l10.35,10.88c-9.83-.98-18.78,4.42-22.54,13.48-13.59-6.65-15.87-23.61-21.99-33.42,11.62,4.15,22.7,7.67,34.19,9.06Z"/>
  <path class="st4" d="M53.7,285.9c-9.16-13.24-14.92-32.61-32.22-32.21l-.19-85.57c7.32-12.26,16.66-18.33,30.61-12.53-4.11,42.62-7.45,88.38,1.79,130.31Z"/>
  <path class="st8" d="M63.71,106.85c-6.88,14.47-10.27,32.75-11.81,48.74-3.76,3.47-10.26,18.23-15.04,22.25-3.28,2.76-13.81-9.5-15.57-9.72-.05-24.58,9.56-43.04,19.29-63.29,11.56-20.3,18.71-21.79,23.13,2.02Z"/>
  <path class="st7" d="M95.75,64.53c-12.41,11.98-24.86,27.23-32.04,42.32l-23.13-2.02c7.23-15.06,8.58-29.67,21.61-43.01,19.75-12.19,30.94-11.28,33.55,2.71Z"/>
  <path class="st13" d="M94.65,41.18c12.75-9.02,24.23-15.5,31.87,1.2-5.21,12.85-23.27,14.91-30.77,22.15l-33.55-2.71c9.34-9.56,17.71-18.4,32.45-20.64Z"/>
  <path class="st18" d="M160.02,33.66c-11.05,4.62-20.41,8.76-33.5,8.72l-31.87-1.2c5.66-4.39,10.73-18.38,21.71-20.21,8.96,13.48,28.16,13.21,43.66,12.69Z"/>
  <path class="st21" d="M329.15,29.74c-43.49-1.66-87.18,2.53-130.96.49,40.77-13.69,90.05-13.36,130.96-.49Z"/>
  <path class="st15" d="M506.01,200.14l-.34,52.69c-.03,4.73-5.52,10.08-10.75,12.5l-.36-86.17c9.93,2.87,11.51,11.86,11.45,20.99Z"/>
  <g>
    <path class="st19" d="M348.72,261.8l-54.1,1.22c15.18-17.98,37.8-12.71,54.1-1.22Z"/>
    <path class="st9" d="M241.41,380.38c-6.17-14.83-17.26-27.01-19.78-44.04,8.39-1.28,18.62,1.47,19.94,7.35,2.98,13.31,1.6,25.65-.16,36.69Z"/>
    <path class="st0" d="M249.51,297.65c4.99,7.4-13.93,22-23.26,19.76-13.09-3.14-16.45-9.19-24.18-28.96,7.62-5.3,32.15-13.47,47.44,9.2Z"/>
    <path class="st5" d="M308.49,286.78c6.69-3.95,20.62-6.23,28.57,2.67,3.83,4.29-2.13,16.62-9.59,21.32-4.81,3.04-9.64,10.99-21.87.83-5.9-4.91-15.29-14.08,2.88-24.82Z"/>
  </g>
</svg>