<svg version="1.2" xmlns="http://www.w3.org/2000/svg" viewBox="0 0 1652 1094" width="1652" height="1094">
	<title>the9-logo_750x430-svg</title>
	<style>
		.s0 { fill: #fe8501 } 
		.s1 { fill: #ffffff } 
		.s2 { fill: #ffd202 } 
	</style>
	<g id="#fe8501ff">
		<path id="Layer" class="s0" d="m1414.4 3.9c50-15.9 107.7 20.4 114.7 72.3c10 51.5-33 105.2-85.7 105.5c-48 3.1-94.4-38-94.2-86.7c-3.6-40.9 26.2-80.4 65.2-91.1z" />
		<path id="Layer" class="s0" d="m1230.5 88.4c44.8-8.6 93.4 29.8 91.1 76.4c3.3 46.5-43.4 88-89.1 79.5c-47.8-4.4-80.9-59.3-63.3-103.9c8.6-27.2 33.7-46.7 61.3-52z" />
		<path id="Layer" class="s0" d="m1541.1 187.1c47-21.9 108.2 14.8 109.7 67c6 50.9-48.5 97.4-97.7 82.2c-40.4-9-68.6-53.6-57.8-93.8c5.6-24.3 23.2-45.1 45.8-55.4z" />
	</g>
	<g id="#000000ff">
		<path id="Layer" fill-rule="evenodd" class="s1" d="m406.4 46.7c10.6-8.4 24-10.1 37.1-10.7c9.9 116.7 2.6 233.9 2 350.8c38.6-36.7 88.1-63.8 141.7-69.2c41.8-4.8 89.5 2.8 119.1 35.4c24.7 25 32.3 60.9 35 94.8c5.6 86.3-2.2 173.2 4.4 259.5c0.3 34.8 42 29.5 65.5 36.2c16.8 3.7 15.4 21.9 8.1 33.5c-71-3.2-142.2-6.5-213.2 0.2c-15 4.2-29.8-10.7-21.9-25.5c20-20.2 58.3-6.4 74.1-31.6c5.8-72.1 1.9-144.6 3-216.8c-1.3-34.8 0.9-74.7-24.2-102.3c-23.9-24.6-61.4-26.8-93.3-21.5c-38 7.9-72 29.7-98.7 57.4c2.4 64.7 0.5 129.5 1.1 194.2c0.7 32-2.9 65.2 6.9 96.1c17.8 15.2 43.8 9.5 64.1 18.6c18.2 8.1 6.3 37.2-12.7 31.6c-68.2-5.5-136.9-6.2-205 0.9c-14.6-0.7-17.4-14.9-18.9-26.6c22.3-18.8 54.7-9.8 77.6-25.1c11.3-23.4 6.9-51.1 8.7-76.4c0-155.4 0.7-310.7-0.4-466.1c0.3-20-2.4-39.9-6.3-59.6c-16.9-9.1-36.2-7.1-54.5-9.1c-14.6-2.6-14.8-26.9-0.3-29.5c34.5-10.7 70.7-18.7 101-39.2zm-273.4 208.9c8.5 0.7 16.9 1.5 25.3 2.8c-2.3 35.7-3.1 71.5-6 107.2c44.7 0 89.5 0 134.2 0c0 15.4 0.1 30.9 0.1 46.4c-44.7-0.3-89.4 0-134.1-0.2c0.2 77.5-0.3 155 0.2 232.5c2.8 28.5 0.9 63.2 25.6 83c25.3 19.1 60.9 10.6 85.4-5.9c10.2-8.6 33-7.3 26.5 11.1c-20.4 32.6-59.8 53.4-98.3 51.8c-25.8-0.3-54.1 3-76.5-12.7c-33.6-21.7-39.7-65.7-41.1-102.4c-0.8-85.8-0.2-171.6-0.3-257.4c-23 0.1-46 0.7-68.9-1.8c-1.3-3.9-3.8-11.8-5.1-15.7c21.1-18.3 50.1-24.5 70-44.5c30.3-24.3 47.3-59.6 63-94.2zm761.5 91.8c49.4-17.5 105.8-18.1 154.6 1.6c46.5 20.8 88.5 69.9 76.4 123.8c-8.7 2-17.3 4.9-26.3 4.5c-84.3-1-168.6-3.1-252.8-4.5c-15.6 50.9-18.4 108.4 4.5 157.6c18.6 39.1 56.3 68.7 99.3 75.6c47.7 9.9 104.3 4.2 139.6-32.7c10.9-9.8 17.7-27.8 35-26.4c12.2 6.4 7.8 21.6 2.6 31.3c-21.7 41.4-60.5 74.3-105.7 86.8c-45.7 12.2-95 11-139.8-4c-56.8-18.9-99.7-69.8-113.9-127.3c-13.7-55-12.1-114.3 7.6-167.7c20.4-54.1 64.3-99 118.9-118.6zm-35.6 95.3c59.5-3.5 120.3 7 179-6.2c2.6-11.1 7.5-23.4 1.3-34.4c-13.7-33.5-55.9-42-88.2-36.2c-43 5.4-70.7 42.7-92.1 76.8z" />
	</g>
	<g id="#ffd202ff">
		<path id="Layer" fill-rule="evenodd" class="s2" d="m1202.3 370.9c54.9-70.4 129.2-122.9 207.8-163.9c61 90.2 89.6 200.9 82 309.3c-5.6 105.6-43.2 206.8-92.6 299.3c13 25.5 37.9 42.1 58.4 61.3c-27.8-5.4-55.5-12.7-80.9-25.5c-56.9 90.4-128.6 170.6-207.2 242.5c46.8-91.2 92.3-183.2 129.2-278.9c-69-59-134.6-130.5-156.7-221c-17.7-78.8 12.4-160.7 60-223.1zm82.5 50.2c-24.5 64.2-30.5 136.7-11.7 203.1c13 36.9 31.9 71.6 53.9 103.9c46.1-134.7 70.3-278.7 53-421c-42.7 26.7-77.6 66.6-95.2 114z" />
	</g>
</svg>