<?xml version="1.0" encoding="UTF-8"?>
<svg id="Unreal-Engine-Logo--Streamline-Logos" xmlns="http://www.w3.org/2000/svg" version="1.1" xmlns:xlink="http://www.w3.org/1999/xlink" viewBox="0 0 118.97 118.97">
  <!-- Generator: Adobe Illustrator 30.4.0, SVG Export Plug-In . SVG Version: 2.1.4 Build 226)  -->
  <defs>
    <style>
      .st0 {
        fill: url(#linear-gradient);
        fill-rule: evenodd;
      }
    </style>
    <linearGradient id="linear-gradient" x1="44.08" y1="116.96" x2="74.88" y2="2.01" gradientUnits="userSpaceOnUse">
      <stop offset="0" stop-color="#ee205c"/>
      <stop offset=".5" stop-color="#f1563c"/>
      <stop offset=".72" stop-color="#ef6b32"/>
      <stop offset="1" stop-color="#ed8329"/>
    </linearGradient>
  </defs>
  <path class="st0" d="M59.48,118.97c32.85,0,59.48-26.63,59.48-59.48S92.34,0,59.48,0,0,26.63,0,59.48s26.63,59.48,59.48,59.48ZM13.83,68.05c3.88-12.62,13.68-37.1,39.31-46.42v55.32c.97.97,3.49,2.92,5.82,2.92,3.62,0,8.73-2.92,8.73-2.92v-34.93c3-6.27,16.89-17.48,26.21-17.48-5.65,6.51-8.28,10.33-11.65,17.47v34.94c3.88.97,11.65,0,17.47-5.82-4.7,10.71-17.47,23.3-23.29,23.3l-8.74-5.82-8.73,8.73c-8.73,0-23.3-5.82-29.12-14.56h8.74v-33.37c-10.6-1.45-15.45,5.26-24.75,18.63Z"/>
</svg>