<?xml version="1.0" encoding="utf-8"?>
<svg xmlns="http://www.w3.org/2000/svg" width="99" height="111" viewBox="0 0 99 111" fill="none">
  <path d="M45.2565 1.02147L3.81262 24.9549C1.44829 26.3169 0 28.8426 0 31.5666V79.4334C0 82.1573 1.46067 84.6831 3.81262 86.0451L45.2565 109.979C47.6208 111.34 50.5298 111.34 52.8942 109.979L94.338 86.0451C96.7023 84.6831 98.1507 82.1573 98.1507 79.4334V31.5666C98.1507 28.8426 96.6899 26.3169 94.338 24.9549L52.8942 1.02147C50.5298 -0.340491 47.6208 -0.340491 45.2565 1.02147Z" fill="#802800"/>
  <path d="M54.5981 17.8811C56.0889 17.1325 58.0787 17.1325 59.6912 18.0028C62.3016 19.2444 64.6625 22.4762 65.0337 25.3367C65.5326 28.9398 62.0521 29.8101 59.0705 29.9379C57.2085 30.0597 54.8476 29.9379 53.229 28.8181C48.8783 26.2071 50.6186 19.8652 54.5981 17.8811ZM20.3707 72.146C27.5204 65.9685 42.8178 65.4816 53.9775 67.5509C63.6828 69.3525 79.0532 72.9312 82.9415 82.9065C83.1179 83.3508 83.7386 83.4299 84.0307 83.0343C87.353 78.5549 85.6614 73.6372 82.4668 69.6689C80.684 67.4536 78.4387 65.5364 76.3333 64.1487C67.6076 57.9286 58.0057 55.9445 50.0892 55.6341L56.7461 47.1438C54.9876 46.7299 53.4481 46.9246 52.1703 47.3811C50.2779 48.0567 48.9574 49.2983 48.3368 49.9678L46.0124 52.451L42.8482 55.7862C37.1163 56.2488 33.3558 57.3626 33.3558 57.3626C26.3461 59.1823 19.7622 62.6576 15.3994 67.8005C11.7424 72.1156 7.43427 83.4421 16.7015 83.1256C17.0362 83.1135 17.3344 83.1013 17.5473 83.083C17.7603 83.0648 23.4375 82.7544 32.8264 77.0394C32.8264 77.0394 33.8 76.3821 35.0109 75.5361C36.2218 74.6901 37.8404 73.3694 39.0939 72.1765C40.3473 70.9836 41.9416 69.5898 41.6739 69.3829C41.4061 69.176 40.1283 70.0037 38.9661 70.6184C38.0108 71.0627 37.5179 71.3305 36.812 71.6165C33.009 73.1868 29.066 74.757 24.9891 75.9378C23.3584 76.4612 17.7968 78.1471 17.1092 76.7229C16.5677 75.4022 18.1193 74.0754 20.3707 72.14V72.146ZM68.3439 36.438C62.3442 36.6632 57.4154 33.4558 52.1703 31.0152C46.7121 28.4103 40.5664 26.9435 34.5363 28.0025C31.8042 28.4772 28.7313 29.3476 26.4008 30.65C24.0703 31.9525 18.9164 35.6773 17.0058 44.1797C16.8658 45.044 17.8516 45.6404 18.5453 45.0988C18.5453 45.0988 23.2428 41.4957 23.6991 41.0514C24.1555 40.6071 24.6484 40.1446 24.7457 40.0046C24.8005 39.9255 24.9465 39.2012 24.9648 39.116C25.1656 38.1361 25.9871 37.3936 26.9241 37.0406C33.7392 34.46 42.3797 38.2517 48.8175 41.8852C49.1704 42.0922 49.5233 42.2991 49.8763 42.4939C49.9067 42.5121 49.9371 42.5304 49.9614 42.5426C51.8295 43.565 53.7584 44.3867 55.8151 44.7275C61.3645 45.6465 67.2181 43.7537 72.0435 40.6254C73.6681 39.5238 75.1528 38.2883 76.4854 36.9249C77.2095 36.2007 77.9214 35.3669 78.3535 34.18C78.4447 33.9305 78.1892 33.6931 77.9458 33.7966C75.0129 35.0747 71.6844 35.9146 70.6196 36.1703C69.4817 36.4441 68.3378 36.432 68.3378 36.432L68.3439 36.438Z" fill="url(#paint0_linear_3226_37411)"/>
  <defs>
    <linearGradient id="paint0_linear_3226_37411" x1="11.142" y1="50.3208" x2="85.8318" y2="50.3208" gradientUnits="userSpaceOnUse">
      <stop stop-color="#FF5B00"/>
      <stop offset="0.03" stop-color="#FF5B00"/>
      <stop offset="0.95" stop-color="#FFCF00"/>
      <stop offset="1" stop-color="#FFCF00"/>
    </linearGradient>
  </defs>
</svg>